<?xml version="1.0" encoding="UTF-8"?>
<svg id="Ebene_2" data-name="Ebene 2" xmlns="http://www.w3.org/2000/svg" viewBox="0 0 858.14 855.89">
  <defs>
    <style>
      .cls-1 {
        fill: #d4155b;
      }

      .cls-2 {
        fill: #f2f2f2;
      }
    </style>
  </defs>
  <g id="Ebene_1" data-name="Ebene 1">
    <g>
      <g>
        <path class="cls-1" d="M569.63,183.18C561.08,102.63,506,30.25,431.05,0c-132.19,52.94-182.12,221.04-100.04,337.38,0,0,3.61-51.63,8.28-74.17,10.7-51.56,47.87-95.73,91.76-124.47,66.46,42.15,104.05,120.5,100.03,198.63,30.96-44.31,44.89-100.38,38.55-154.2Z"/>
        <polygon class="cls-1" points="431.04 383.24 371.02 303.22 431.04 223.19 491.06 303.22 431.04 383.24"/>
        <path class="cls-1" d="M379.27,473.83c-35.72-138.22-165.17-243.93-307.9-250.63,2.55,49.77,16.07,98.57,39.58,142.36,45.67,86.16,129.67,150.51,224.98,171.56-23.37-73.61-72.92-138.18-137.69-180.14,76.54,22.89,143.77,74.06,186.69,141.34-1.59-8.27-3.47-16.44-5.65-24.49Z"/>
        <path class="cls-1" d="M716.09,470.34c-9.41,10.52-19.87,20.12-31.15,28.64h-.01c-31.01,24.56-69,36.66-107.37,44.38-30.27,8.36-58.85,21.87-84.57,39.65,0,.13-.01.26-.01.37h-.51c-3.82,2.68-7.58,5.43-11.27,8.28h-.01c-18.47,14.31-35.11,30.84-49.5,49.24-14.39-18.4-31.03-34.93-49.5-49.24h-.01c-3.68-2.85-7.45-5.6-11.27-8.28l-.52-.37c-25.72-17.78-54.3-31.28-84.57-39.65-38.37-7.72-76.35-19.82-107.37-44.38h-.01c-11.29-8.52-21.74-18.12-31.15-28.64-46.45-10.63-96.43-9.12-142.05,4.5,58.79,114.01,198.46,174.23,321.74,138.56,41.27,20.87,77.16,52.09,103.59,90.03h2.24c26.43-37.94,62.32-69.16,103.59-90.03,66.1,18.4,139.62,11.19,200.69-20.01,51.26-25.87,94.12-67.82,121.05-118.54-45.63-13.62-95.61-15.12-142.05-4.5Z"/>
        <path class="cls-1" d="M752.47,227.86c-135.78,22.78-249.45,135-274,270.46,42.91-67.28,110.15-118.45,186.69-141.34-64.76,41.96-114.32,106.53-137.69,180.14,95.31-21.05,179.31-85.41,224.98-171.56,23.5-43.8,37.03-92.59,39.58-142.36-13.41.8-26.61,2.37-39.55,4.66Z"/>
      </g>
      <g>
        <path class="cls-2" d="M15.76,807.39h38.28v11.57H15.76v23.14h40.75v13.05H0v-82.11h56.13v13.05H15.76v21.3Z"/>
        <path class="cls-2" d="M136.03,773.04l-26.47,82.11h-23.88l-26.22-82.11h16.13l15.39,46.53c1.23,3.45,4.18,13.66,6.52,22.28h.37c3.82-13.79,4.31-15.51,6.53-22.28l15.14-46.53h16.5Z"/>
        <path class="cls-2" d="M156.47,807.39h38.28v11.57h-38.28v23.14h40.75v13.05h-56.5v-82.11h56.13v13.05h-40.38v21.3Z"/>
        <path class="cls-2" d="M205.72,773.04h40.38c19.82,0,26.59,6.16,26.59,24.5,0,16.37-2.83,20.8-14.77,23.14v.62c9.36.49,14.03,6.03,13.91,16v17.85h-15.88v-14.77c.25-8.99-3.57-12.8-12.31-12.56h-22.16v27.33h-15.76v-82.11ZM243.51,814.4c4.92,0,8.13-.74,9.97-2.46,2.59-2.09,3.2-4.55,3.2-11.57,0-11.57-1.97-13.79-12.06-13.79h-23.14v27.82h22.04Z"/>
        <path class="cls-2" d="M281.06,773.04h40.5c8.74,0,13.17.74,16.62,2.58,5.42,3.08,7.88,8.99,7.88,18.96,0,11.32-3.2,16.13-12.06,18.09v.37c10.71,1.72,14.03,6.4,14.03,19.57,0,16.62-6.28,22.53-24.25,22.53h-42.72v-82.11ZM315.9,807.51c6.65,0,8.99-.37,10.96-1.48,2.58-1.48,3.57-4.18,3.57-9.85,0-5.29-1.11-7.88-3.69-9.23-1.48-.62-3.2-.86-7.63-.86h-22.28v21.42h19.08ZM313.93,842.1c16.37,0,18.47-1.23,18.47-11.08,0-6.53-1.11-9.36-4.31-10.83-1.85-.86-3.82-.98-11.33-.98h-19.94v22.9h17.11Z"/>
        <path class="cls-2" d="M372.04,841.37h38.28v13.79h-54.04v-82.11h15.76v68.32Z"/>
        <path class="cls-2" d="M472.24,775.01c7.39,3.33,11.57,9.23,13.17,18.84.62,3.69.86,8.49.86,19.45,0,19.7-.74,25.11-4.19,31.27-2.95,5.17-8.37,8.74-15.76,10.22-3.32.74-9.85,1.11-17.85,1.11-12.19,0-18.34-.99-23.39-3.69-6.52-3.57-9.85-8.86-11.32-17.97-.62-3.82-.74-7.76-.74-17.97,0-21.17.86-27.21,4.68-33.24,3.08-4.8,8.49-8.25,15.26-9.6,3.2-.74,9.97-1.11,17.36-1.11,11.69,0,17.11.74,21.91,2.71ZM429.03,817.48c0,14.4.62,18.1,3.57,21.54,2.34,2.71,6.03,3.32,18.59,3.32s15.39-1.35,17.48-7.26c1.48-4.06,1.6-6.16,1.6-21.54,0-12.93,0-13.29-.62-17.11-.74-4.8-2.71-7.88-5.78-9.23-2.71-1.11-5.79-1.35-15.02-1.35-9.97,0-13.29.62-15.88,3.2-2.71,2.59-3.82,6.89-3.94,15.02v13.42Z"/>
        <path class="cls-2" d="M551.41,775.01c7.39,3.33,11.57,9.23,13.17,18.84.62,3.69.86,8.49.86,19.45,0,19.7-.74,25.11-4.19,31.27-2.95,5.17-8.37,8.74-15.76,10.22-3.32.74-9.85,1.11-17.85,1.11-12.19,0-18.34-.99-23.39-3.69-6.52-3.57-9.85-8.86-11.32-17.97-.62-3.82-.74-7.76-.74-17.97,0-21.17.86-27.21,4.68-33.24,3.08-4.8,8.49-8.25,15.26-9.6,3.2-.74,9.97-1.11,17.36-1.11,11.69,0,17.11.74,21.91,2.71ZM508.2,817.48c0,14.4.62,18.1,3.57,21.54,2.34,2.71,6.03,3.32,18.59,3.32s15.39-1.35,17.48-7.26c1.48-4.06,1.6-6.16,1.6-21.54,0-12.93,0-13.29-.62-17.11-.74-4.8-2.71-7.88-5.78-9.23-2.71-1.11-5.79-1.35-15.02-1.35-9.97,0-13.29.62-15.88,3.2-2.71,2.59-3.82,6.89-3.94,15.02v13.42Z"/>
        <path class="cls-2" d="M669.96,855.15h-15.51v-44.81c0-5.91.12-7.51.62-18.22l.25-6.03h-.49l-1.85,5.66c-3.45,10.71-4.31,13.54-5.66,17.11l-18.1,46.29h-14.16l-18.22-45.92c-1.6-3.94-2.46-6.53-5.91-17.11l-1.85-5.66h-.49l.37,5.91c.49,10.34.62,12.93.62,17.97v44.81h-15.51v-82.11h25.36l14.65,38.04c1.48,3.82,2.34,6.53,5.79,16.99l1.85,5.79h.49l1.85-5.66c3.2-10.34,4.19-13.17,5.54-16.99l14.53-38.16h25.85v82.11Z"/>
        <path class="cls-2" d="M777.81,811.57c.25,4.19.25,7.14.25,14.16,0,14.03-1.23,19.08-5.66,23.64-4.92,5.17-11.45,6.53-30.9,6.53-11.2,0-16.25-.62-21.05-2.59-10.59-4.43-14.16-12.31-14.16-31.27,0-21.54.25-26.34,1.85-32.38,2.22-8.25,7.51-13.54,15.63-15.88,3.82-1.11,9.23-1.48,19.57-1.48,16.87,0,21.05.62,26.59,3.94,5.54,3.32,7.63,9.11,7.88,21.42h-15.88c-.49-10.96-2.46-12.19-19.45-12.19-11.82,0-16,1.35-18.22,5.91-1.6,3.45-1.97,7.26-1.97,22.16s.37,20.07,1.85,23.27c2.09,4.55,6.65,5.91,19.45,5.91,8.99,0,13.54-.86,15.63-2.95,2.09-2.09,3.2-6.52,3.2-13.17,0-.37-.12-1.85-.25-3.32h-20.56v-11.7h36.19Z"/>
        <path class="cls-2" d="M852.54,825.85v2.83c0,12.31-1.23,16.87-5.66,21.05-2.59,2.46-6.89,4.55-11.45,5.42-2.58.37-9.85.74-17.11.74-14.16,0-17.97-.62-23.39-3.69-7.14-3.82-10.22-9.97-11.08-21.67-.37-4.68-.62-14.77-.62-22.28,0-17.11,1.6-23.39,7.14-28.68,6.16-5.91,12.31-7.26,32.25-7.26,13.05,0,18.22,1.11,22.4,4.68,3.45,2.95,5.54,7.26,6.28,13.29.25,1.97.37,4.43.49,10.09h-15.63c-.25-13.17-1.72-14.53-15.76-14.53-10.46,0-15.02.86-17.48,3.2-2.09,2.09-2.95,5.05-3.2,11.33q-.12,2.09-.12,13.3c0,26.96,1.11,28.68,18.71,28.68,16,0,18.71-1.97,18.71-13.05,0-.74,0-1.85-.12-3.45h15.63Z"/>
      </g>
    </g>
  </g>
</svg>